<?xml version="1.0" encoding="utf-8"?>
<!-- Generator: Adobe Illustrator 25.4.1, SVG Export Plug-In . SVG Version: 6.00 Build 0)  -->
<svg version="1.1" id="Layer_1" xmlns="http://www.w3.org/2000/svg" xmlns:xlink="http://www.w3.org/1999/xlink" x="0px" y="0px"
	 viewBox="0 0 60 60" style="enable-background:new 0 0 60 60;" xml:space="preserve">
<style type="text/css">
	.st0{fill:#FFFFFF;}
	.st1{fill:#49AEA6;}
</style>
<g>
	<circle class="st0" cx="29.72" cy="29.96" r="25"/>
</g>
<g>
	<path class="st1" d="M40.66,20.13H18.79c-1.95,0-3.54,1.59-3.54,3.54v12.58c0,1.95,1.59,3.54,3.54,3.54h21.87
		c1.95,0,3.54-1.59,3.54-3.54V23.67C44.2,21.72,42.61,20.13,40.66,20.13z M38.93,22.44l-9.21,5.93l-9.21-5.93H38.93z M40.66,37.48
		H18.79c-0.68,0-1.23-0.55-1.23-1.23V23.74l11.45,7.37c0.02,0.01,0.03,0.02,0.05,0.02c0.02,0.01,0.03,0.02,0.05,0.03
		c0.09,0.05,0.18,0.08,0.27,0.11c0.01,0,0.02,0,0.03,0.01c0.1,0.02,0.21,0.04,0.31,0.04c0,0,0,0,0,0c0,0,0,0,0,0
		c0.1,0,0.21-0.01,0.31-0.04c0.01,0,0.02,0,0.03-0.01c0.09-0.02,0.18-0.06,0.27-0.11c0.02-0.01,0.03-0.02,0.05-0.03
		c0.02-0.01,0.03-0.02,0.05-0.02l11.45-7.37v12.51C41.89,36.93,41.34,37.48,40.66,37.48z"/>
</g>
</svg>
