<?xml version="1.0" encoding="utf-8"?>
<!-- Generator: Adobe Illustrator 25.4.1, SVG Export Plug-In . SVG Version: 6.00 Build 0)  -->
<svg version="1.1" id="Layer_1" xmlns="http://www.w3.org/2000/svg" xmlns:xlink="http://www.w3.org/1999/xlink" x="0px" y="0px"
	 viewBox="0 0 60 60" style="enable-background:new 0 0 60 60;" xml:space="preserve">
<style type="text/css">
	.st0{fill:#FFFFFF;}
	.st1{fill:#49AEA6;}
</style>
<g>
	<circle class="st0" cx="29.9" cy="30.2" r="25"/>
</g>
<g>
	<path class="st1" d="M38.47,14.71c9.87,1.27,6.97,15.57,6.7,22.5c-0.15,3.81-0.83,6.76-4.77,8.08c-5.17,1.74-12.79,1.16-18.07,0.39
		c-3.53-0.51-6.29-1.56-7.27-5.22c-1.54-5.78-1.11-13.61-0.44-19.5c0.02-0.11,0.05-0.19,0.1-0.26
		C14.83,11.86,33.34,14.05,38.47,14.71z"/>
	<path class="st0" d="M42.57,20.08c0.02-2.43-3.01-3.2-4.63-1.71c-0.44,0.41-0.64,1.03-0.67,1.7c0.16,0.86,0.68,1.72,1.35,2.2
		C40.19,23.38,42.55,21.91,42.57,20.08z"/>
	<path class="st0" d="M38.07,24.81c-3.48-5.26-11.32-5.78-15.54-1.12c-2.88,3.18-3.08,8.47-0.91,12.23
		c0.12,0.04,0.23,0.11,0.34,0.23c3.52,3.92,9.57,5.34,13.92,1.79C39.75,34.77,40.89,29.08,38.07,24.81z"/>
	<path class="st1" d="M24.22,32.02c1.23,3.45,5.6,6.2,9.08,4.06c7.04-4.31-1.23-16.01-7.03-10.82
		C24.22,26.47,23.41,29.76,24.22,32.02z"/>
</g>
</svg>
