<?xml version="1.0" encoding="utf-8"?>
<!-- Generator: Adobe Illustrator 25.4.1, SVG Export Plug-In . SVG Version: 6.00 Build 0)  -->
<svg version="1.1" id="Layer_1" xmlns="http://www.w3.org/2000/svg" xmlns:xlink="http://www.w3.org/1999/xlink" x="0px" y="0px"
	 viewBox="0 0 60 60" style="enable-background:new 0 0 60 60;" xml:space="preserve">
<style type="text/css">
	.st0{fill:#FFFFFF;}
	.st1{fill:#49AEA6;}
</style>
<g>
	<circle class="st0" cx="31.55" cy="29.64" r="25"/>
</g>
<g id="XMLID_834_">
	<path id="XMLID_835_" class="st1" d="M21.9,30.97h4.47v18.41c0,0.36,0.29,0.66,0.66,0.66h7.58c0.36,0,0.66-0.29,0.66-0.66V31.05
		h5.14c0.33,0,0.62-0.25,0.65-0.58l0.78-6.78c0.02-0.19-0.04-0.37-0.16-0.51c-0.12-0.14-0.3-0.22-0.49-0.22h-5.92v-4.25
		c0-1.28,0.69-1.93,2.05-1.93c0.19,0,3.87,0,3.87,0c0.36,0,0.66-0.29,0.66-0.66V9.9c0-0.36-0.29-0.66-0.66-0.66h-5.34
		c-0.04,0-0.12,0-0.24,0c-0.93,0-4.14,0.18-6.69,2.52c-2.82,2.59-2.43,5.69-2.33,6.23v4.97H21.9c-0.36,0-0.66,0.29-0.66,0.66v6.69
		C21.25,30.67,21.54,30.97,21.9,30.97z"/>
</g>
</svg>
