<svg id="Layer_1" data-name="Layer 1" xmlns="http://www.w3.org/2000/svg" viewBox="0 0 31.75 31.75"><defs><style>.cls-1{fill:#fff;}</style></defs><path class="cls-1" d="M273.5,408c4.24,0,4.74,0,6.41.09a8.69,8.69,0,0,1,2.95.55,4.93,4.93,0,0,1,1.83,1.18,5.08,5.08,0,0,1,1.19,1.83,9,9,0,0,1,.54,2.95c.08,1.67.09,2.17.09,6.41s0,4.74-.09,6.41a9,9,0,0,1-.54,2.95,5.08,5.08,0,0,1-1.19,1.83,4.93,4.93,0,0,1-1.83,1.18,8.69,8.69,0,0,1-2.95.55c-1.67.08-2.17.09-6.41.09s-4.74,0-6.41-.09a8.69,8.69,0,0,1-2.95-.55,5.16,5.16,0,0,1-3-3,8.69,8.69,0,0,1-.55-2.95c-.08-1.67-.09-2.17-.09-6.41s0-4.74.09-6.41a8.69,8.69,0,0,1,.55-2.95,5.16,5.16,0,0,1,3-3,8.69,8.69,0,0,1,2.95-.55c1.67-.08,2.17-.09,6.41-.09m0-2.86c-4.31,0-4.85,0-6.54.09a11.83,11.83,0,0,0-3.86.74,8.11,8.11,0,0,0-4.64,4.64,11.82,11.82,0,0,0-.74,3.85c-.08,1.7-.09,2.24-.09,6.55s0,4.85.09,6.55a11.82,11.82,0,0,0,.74,3.85A8.11,8.11,0,0,0,263.1,436a11.83,11.83,0,0,0,3.86.74c1.69.08,2.23.09,6.54.09s4.85,0,6.55-.09a11.82,11.82,0,0,0,3.85-.74,8.11,8.11,0,0,0,4.64-4.64,11.82,11.82,0,0,0,.74-3.85c.08-1.7.09-2.24.09-6.55s0-4.85-.09-6.55a11.82,11.82,0,0,0-.74-3.85A8.11,8.11,0,0,0,283.9,406a11.82,11.82,0,0,0-3.85-.74c-1.7-.08-2.24-.09-6.55-.09" transform="translate(-257.63 -405.13)"/><path class="cls-1" d="M273.5,412.85a8.15,8.15,0,1,0,8.15,8.15,8.15,8.15,0,0,0-8.15-8.15m0,13.44a5.29,5.29,0,1,1,5.29-5.29,5.29,5.29,0,0,1-5.29,5.29" transform="translate(-257.63 -405.13)"/><path class="cls-1" d="M283.88,412.53a1.91,1.91,0,1,1-1.91-1.91,1.9,1.9,0,0,1,1.91,1.91" transform="translate(-257.63 -405.13)"/></svg>