<?xml version="1.0" encoding="utf-8"?>
<!-- Generator: Adobe Illustrator 25.4.1, SVG Export Plug-In . SVG Version: 6.00 Build 0)  -->
<svg version="1.1" id="Layer_1" xmlns="http://www.w3.org/2000/svg" xmlns:xlink="http://www.w3.org/1999/xlink" x="0px" y="0px"
	 viewBox="0 0 60 60" style="enable-background:new 0 0 60 60;" xml:space="preserve">
<style type="text/css">
	.st0{fill:#FFFFFF;}
	.st1{fill:#49AEA6;}
</style>
<g>
	<circle class="st0" cx="31.79" cy="29.27" r="25"/>
</g>
<g id="XMLID_801_">
	<path id="XMLID_802_" class="st1" d="M23.95,24.04h-5.9c-0.26,0-0.47,0.21-0.47,0.47v18.94c0,0.26,0.21,0.47,0.47,0.47h5.9
		c0.26,0,0.47-0.21,0.47-0.47V24.51C24.42,24.25,24.21,24.04,23.95,24.04z"/>
	<path id="XMLID_803_" class="st1" d="M21,14.62c-2.15,0-3.89,1.74-3.89,3.89c0,2.14,1.75,3.89,3.89,3.89
		c2.14,0,3.89-1.74,3.89-3.89C24.89,16.36,23.14,14.62,21,14.62z"/>
	<path id="XMLID_804_" class="st1" d="M38.94,23.57c-2.37,0-4.12,1.02-5.18,2.17v-1.23c0-0.26-0.21-0.47-0.47-0.47h-5.65
		c-0.26,0-0.47,0.21-0.47,0.47v18.94c0,0.26,0.21,0.47,0.47,0.47h5.88c0.26,0,0.47-0.21,0.47-0.47v-9.37c0-3.16,0.86-4.39,3.06-4.39
		c2.4,0,2.59,1.97,2.59,4.55v9.21c0,0.26,0.21,0.47,0.47,0.47h5.89c0.26,0,0.47-0.21,0.47-0.47V33.06
		C46.48,28.37,45.58,23.57,38.94,23.57z"/>
</g>
</svg>
