<?xml version="1.0" encoding="utf-8"?>
<!-- Generator: Adobe Illustrator 25.4.1, SVG Export Plug-In . SVG Version: 6.00 Build 0)  -->
<svg version="1.1" id="Layer_1" xmlns="http://www.w3.org/2000/svg" xmlns:xlink="http://www.w3.org/1999/xlink" x="0px" y="0px"
	 viewBox="0 0 312 312" style="enable-background:new 0 0 312 312;" xml:space="preserve">
<style type="text/css">
	.st0{fill:#FFFFFF;}
</style>
<path class="st0" d="M155.74,52.18C98.5,52.17,52.1,98.57,52.1,155.8s46.39,103.63,103.62,103.64
	c57.23,0.01,103.63-46.39,103.64-103.62c0-0.01,0-0.01,0-0.02C259.35,98.57,212.96,52.18,155.74,52.18z M71.99,173.12
	c40.36,0.81,74.77,29.46,82.88,69C114.51,241.3,80.1,212.66,71.99,173.12z M155.73,112.94c24.8,30.93,25.61,67.53,0,99.55
	C130.95,181.56,130.1,144.96,155.73,112.94z M156.61,242.12c8.1-39.54,42.52-68.19,82.87-69
	C231.37,212.66,196.96,241.31,156.61,242.12z"/>
</svg>
