<svg id="Layer_1" data-name="Layer 1" xmlns="http://www.w3.org/2000/svg" viewBox="0 0 207.25 207.25"><defs><style>.cls-1{fill:#49aea6;}</style></defs><path class="cls-1" d="M297.64,303.75A103.63,103.63,0,1,0,401.26,407.37,103.63,103.63,0,0,0,297.64,303.75ZM213.89,424.69a86.37,86.37,0,0,1,82.88,69A86.39,86.39,0,0,1,213.89,424.69Zm83.74-60.18c24.8,30.93,25.61,67.53,0,99.55C272.85,433.13,272,396.53,297.63,364.51Zm.88,129.18a86.35,86.35,0,0,1,82.87-69A86.37,86.37,0,0,1,298.51,493.69Z" transform="translate(-194.01 -303.75)"/></svg>