<?xml version="1.0" encoding="utf-8"?>
<!-- Generator: Adobe Illustrator 25.4.1, SVG Export Plug-In . SVG Version: 6.00 Build 0)  -->
<svg version="1.1" id="Layer_1" xmlns="http://www.w3.org/2000/svg" xmlns:xlink="http://www.w3.org/1999/xlink" x="0px" y="0px"
	 viewBox="0 0 156 156" style="enable-background:new 0 0 156 156;" xml:space="preserve">
<style type="text/css">
	.st0{fill:#49AEA6;}
	.st1{fill:#FFFFFF;}
</style>
<g>
	<rect x="0.26" y="0.28" class="st0" width="156.21" height="156.21"/>
	<path class="st1" d="M39.31,32.54v6.83h6.66c17.89,0,32.39-14.43,32.39-32.22V0.32H71.7C53.8,0.28,39.31,14.74,39.31,32.54z"/>
	<path class="st1" d="M39.31,39.34v6.83c0,17.79,14.49,32.22,32.39,32.22h6.66v-6.83c0-17.79-14.49-32.22-32.39-32.22H39.31z"/>
	<path class="st1" d="M0.26,71.59v6.83h6.66c17.89,0,32.39-14.43,32.39-32.22v-6.83h-6.66C14.75,39.34,0.26,53.8,0.26,71.59z"/>
	<path class="st1" d="M0.26,0.28v6.83c0,17.79,14.49,32.22,32.39,32.22h6.66V32.5c0-17.79-14.49-32.22-32.39-32.22H0.26z"/>
	<path class="st1" d="M156.47,7.11V0.28h-6.66c-17.89,0-32.39,14.43-32.39,32.22v6.83h6.66C141.97,39.34,156.47,24.91,156.47,7.11z"
		/>
	<path class="st1" d="M156.47,78.39v-6.83c0-17.79-14.49-32.22-32.39-32.22h-6.66v6.83c0,17.79,14.49,32.22,32.39,32.22H156.47z"/>
	<path class="st1" d="M85.03,78.39c17.89,0,32.39-14.43,32.39-32.22v-6.83h-6.66c-17.89,0-32.39,14.43-32.39,32.22v6.83H85.03z"/>
	<path class="st1" d="M110.75,39.34h6.66V32.5c0-17.79-14.49-32.22-32.39-32.22h-6.66v6.83C78.36,24.91,92.86,39.34,110.75,39.34z"
		/>
	<path class="st1" d="M39.31,110.64v6.83h6.66c17.89,0,32.39-14.43,32.39-32.22v-6.83H71.7C53.8,78.39,39.31,92.85,39.31,110.64z"/>
	<path class="st1" d="M39.31,117.44v6.83c0,17.79,14.49,32.22,32.39,32.22h6.66v-6.83c0-17.79-14.49-32.22-32.39-32.22H39.31z"/>
	<path class="st1" d="M0.26,149.69v6.83h6.66c17.89,0,32.39-14.43,32.39-32.22v-6.83h-6.66C14.75,117.44,0.26,131.87,0.26,149.69z"
		/>
	<path class="st1" d="M0.26,78.39v6.83c0,17.79,14.49,32.22,32.39,32.22h6.66v-6.83c0-17.79-14.49-32.22-32.39-32.22H0.26z"/>
	<path class="st1" d="M156.47,85.22v-6.83h-6.66c-17.89,0-32.39,14.43-32.39,32.22v6.83h6.66
		C141.97,117.44,156.47,103.01,156.47,85.22z"/>
	<path class="st1" d="M156.47,156.49v-6.83c0-17.79-14.49-32.22-32.39-32.22h-6.66v6.83c0,17.79,14.49,32.22,32.39,32.22H156.47z"/>
	<path class="st1" d="M85.03,156.49c17.89,0,32.39-14.43,32.39-32.22v-6.83h-6.66c-17.89,0-32.39,14.43-32.39,32.22v6.83H85.03z"/>
	<path class="st1" d="M110.75,117.44h6.66v-6.83c0-17.79-14.49-32.22-32.39-32.22h-6.66v6.83
		C78.36,103.01,92.86,117.44,110.75,117.44z"/>
</g>
</svg>
