<?xml version="1.0" encoding="utf-8"?>
<!-- Generator: Adobe Illustrator 25.4.1, SVG Export Plug-In . SVG Version: 6.00 Build 0)  -->
<svg version="1.1" id="Layer_1" xmlns="http://www.w3.org/2000/svg" xmlns:xlink="http://www.w3.org/1999/xlink" x="0px" y="0px"
	 viewBox="0 0 1280 650" style="enable-background:new 0 0 1280 650;" xml:space="preserve">
<style type="text/css">
	.st0{fill:#FFFFFF;}
	.st1{fill:#F1BB00;}
	.st2{fill:none;}
	.st3{fill:#49AEA6;}
</style>
<g>
	<g>
		<rect x="796.9" y="25.44" class="st0" width="81.85" height="81.85"/>
		<path class="st1" d="M805.27,101.94h19.37c0-5.37-4.33-9.73-9.67-9.73C809.6,92.22,805.27,96.56,805.27,101.94z"/>
		<path class="st1" d="M805.27,86.58h19.37c0-5.37-4.33-9.73-9.67-9.73C809.6,76.85,805.27,81.2,805.27,86.58z"/>
		<path class="st1" d="M805.27,71.21h19.37c0-5.37-4.33-9.73-9.67-9.73C809.6,61.49,805.27,65.83,805.27,71.21z"/>
		<path class="st1" d="M805.27,55.85h19.37c0-5.37-4.33-9.73-9.67-9.73C809.6,46.12,805.27,50.49,805.27,55.85z"/>
		<path class="st1" d="M805.27,40.48h19.37c0-5.37-4.33-9.73-9.67-9.73C809.6,30.75,805.27,35.12,805.27,40.48z"/>
		<path class="st1" d="M828.17,101.94h19.37c0-5.37-4.33-9.73-9.67-9.73C832.49,92.22,828.17,96.56,828.17,101.94z"/>
		<path class="st1" d="M828.17,86.58h19.37c0-5.37-4.33-9.73-9.67-9.73C832.49,76.85,828.17,81.2,828.17,86.58z"/>
		<path class="st1" d="M828.17,71.21h19.37c0-5.37-4.33-9.73-9.67-9.73C832.49,61.49,828.17,65.83,828.17,71.21z"/>
		<path class="st1" d="M828.17,55.85h19.37c0-5.37-4.33-9.73-9.67-9.73C832.49,46.12,828.17,50.49,828.17,55.85z"/>
		<path class="st1" d="M828.17,40.48h19.37c0-5.37-4.33-9.73-9.67-9.73C832.49,30.75,828.17,35.12,828.17,40.48z"/>
		<path class="st1" d="M851.03,101.94h19.37c0-5.37-4.33-9.73-9.67-9.73C855.38,92.22,851.03,96.56,851.03,101.94z"/>
		<path class="st1" d="M851.03,86.58h19.37c0-5.37-4.33-9.73-9.67-9.73C855.38,76.85,851.03,81.2,851.03,86.58z"/>
		<path class="st1" d="M851.03,71.21h19.37c0-5.37-4.33-9.73-9.67-9.73C855.38,61.49,851.03,65.83,851.03,71.21z"/>
		<path class="st1" d="M851.03,55.85h19.37c0-5.37-4.33-9.73-9.67-9.73C855.38,46.12,851.03,50.49,851.03,55.85z"/>
		<path class="st1" d="M851.03,40.48h19.37c0-5.37-4.33-9.73-9.67-9.73C855.38,30.75,851.03,35.12,851.03,40.48z"/>
	</g>
	<g>
		<rect x="715.25" y="25.44" class="st2" width="81.85" height="81.85"/>
		<path class="st1" d="M797.1,25.41c-45.2,0-81.85,36.63-81.85,81.82v0.03h37.33v-0.02c0-24.58,19.94-44.51,44.53-44.51V25.41H797.1
			z"/>
	</g>
</g>
<g>
	<rect x="878.96" y="102.44" class="st2" width="86.35" height="86.35"/>
	<g>
		<g>
			<g>
				<path class="st1" d="M911.89,124.1c0-6.23-5.05-11.29-11.29-11.29c-6.23,0-11.29,5.05-11.29,11.29
					c0,6.23,5.05,11.29,11.29,11.29C906.84,135.39,911.89,130.32,911.89,124.1z"/>
			</g>
			<g>
				<path class="st1" d="M954.96,124.1c0-6.23-5.05-11.29-11.29-11.29c-6.23,0-11.29,5.05-11.29,11.29
					c0,6.23,5.05,11.29,11.29,11.29C949.89,135.39,954.96,130.32,954.96,124.1z"/>
			</g>
			<g>
				<path class="st1" d="M911.89,167.15c0-6.23-5.05-11.29-11.29-11.29c-6.23,0-11.29,5.05-11.29,11.29
					c0,6.23,5.05,11.29,11.29,11.29C906.84,178.44,911.89,173.37,911.89,167.15z"/>
			</g>
			<g>
				<path class="st1" d="M954.96,167.15c0-6.23-5.05-11.29-11.29-11.29c-6.23,0-11.29,5.05-11.29,11.29
					c0,6.23,5.05,11.29,11.29,11.29C949.89,178.44,954.96,173.37,954.96,167.15z"/>
			</g>
		</g>
	</g>
</g>
<g>
	<g>
		<path id="XMLID_1186_" class="st3" d="M1052.79,552.2c0,2.73-2.22,4.95-4.95,4.95s-4.95-2.22-4.95-4.95s2.22-4.95,4.95-4.95
			C1050.57,547.23,1052.79,549.47,1052.79,552.2z"/>
		<path id="XMLID_1185_" class="st3" d="M1078.52,552.2c0,2.73-2.22,4.95-4.95,4.95c-2.73,0-4.95-2.22-4.95-4.95
			s2.22-4.95,4.95-4.95C1076.3,547.23,1078.52,549.47,1078.52,552.2z"/>
		<path id="XMLID_1184_" class="st3" d="M1104.27,552.2c0,2.73-2.22,4.95-4.95,4.95s-4.95-2.22-4.95-4.95s2.22-4.95,4.95-4.95
			C1102.04,547.23,1104.27,549.47,1104.27,552.2z"/>
		<path id="XMLID_1181_" class="st3" d="M1052.79,526.83c0,2.73-2.22,4.95-4.95,4.95s-4.95-2.22-4.95-4.95s2.22-4.95,4.95-4.95
			S1052.79,524.1,1052.79,526.83z"/>
		<path id="XMLID_1180_" class="st3" d="M1078.52,526.83c0,2.73-2.22,4.95-4.95,4.95c-2.73,0-4.95-2.22-4.95-4.95
			s2.22-4.95,4.95-4.95C1076.3,521.88,1078.52,524.1,1078.52,526.83z"/>
		<path id="XMLID_1179_" class="st3" d="M1104.27,526.83c0,2.73-2.22,4.95-4.95,4.95s-4.95-2.22-4.95-4.95s2.22-4.95,4.95-4.95
			C1102.04,521.88,1104.27,524.1,1104.27,526.83z"/>
		<path id="XMLID_1177_" class="st3" d="M1052.79,501.47c0,2.73-2.22,4.95-4.95,4.95s-4.95-2.22-4.95-4.95s2.22-4.95,4.95-4.95
			C1050.57,496.52,1052.79,498.74,1052.79,501.47z"/>
		<path id="XMLID_1176_" class="st3" d="M1078.52,501.47c0,2.73-2.22,4.95-4.95,4.95c-2.73,0-4.95-2.22-4.95-4.95
			s2.22-4.95,4.95-4.95C1076.3,496.52,1078.52,498.74,1078.52,501.47z"/>
		<path id="XMLID_1175_" class="st3" d="M1104.27,501.47c0,2.73-2.22,4.95-4.95,4.95s-4.95-2.22-4.95-4.95s2.22-4.95,4.95-4.95
			C1102.04,496.52,1104.27,498.74,1104.27,501.47z"/>
	</g>
	<rect x="1026.74" y="480" class="st2" width="93.66" height="93.66"/>
</g>
<g>
	<g>
		<rect x="1113.31" y="567.06" class="st3" width="82.92" height="82.92"/>
		<path class="st0" d="M1137.52,625.8c-22.9-22.9-24.2-58.72-24.2-58.72s35.83,1.29,58.72,24.2c22.9,22.9,24.2,58.72,24.2,58.72
			S1160.41,648.69,1137.52,625.8z"/>
	</g>
	<g>
		<rect x="1196.25" y="567.08" class="st1" width="82.92" height="82.92"/>
		<path class="st0" d="M1220.44,591.28c-22.9,22.9-24.2,58.72-24.2,58.72s35.83-1.29,58.72-24.2c22.9-22.9,24.2-58.72,24.2-58.72
			S1243.33,568.36,1220.44,591.28z"/>
	</g>
</g>
<g>
	<rect x="1196.09" y="484.99" class="st3" width="83.56" height="83.56"/>
	<path class="st0" d="M1216.98,502.23v3.65h3.57c9.57,0,17.32-7.72,17.32-17.24V485h-3.57
		C1224.73,484.99,1216.98,492.72,1216.98,502.23z"/>
	<path class="st0" d="M1216.98,505.87v3.65c0,9.52,7.75,17.24,17.32,17.24h3.57v-3.65c0-9.52-7.75-17.24-17.32-17.24H1216.98z"/>
	<path class="st0" d="M1196.09,523.12v3.65h3.57c9.57,0,17.32-7.72,17.32-17.24v-3.65h-3.57
		C1203.85,505.87,1196.09,513.6,1196.09,523.12z"/>
	<path class="st0" d="M1196.09,484.99v3.65c0,9.52,7.75,17.24,17.32,17.24h3.57v-3.65c0-9.52-7.75-17.24-17.32-17.24H1196.09z"/>
	<path class="st0" d="M1279.65,488.64v-3.65h-3.57c-9.57,0-17.32,7.72-17.32,17.24v3.65h3.57
		C1271.9,505.87,1279.65,498.15,1279.65,488.64z"/>
	<path class="st0" d="M1279.65,526.76v-3.65c0-9.52-7.75-17.24-17.32-17.24h-3.57v3.65c0,9.52,7.75,17.24,17.32,17.24H1279.65z"/>
	<path class="st0" d="M1241.43,526.76c9.57,0,17.32-7.72,17.32-17.24v-3.65h-3.57c-9.57,0-17.32,7.72-17.32,17.24v3.65H1241.43z"/>
	<path class="st0" d="M1255.2,505.87h3.57v-3.65c0-9.52-7.75-17.24-17.32-17.24h-3.57v3.65
		C1237.87,498.15,1245.62,505.87,1255.2,505.87z"/>
	<path class="st0" d="M1216.98,544.01v3.65h3.57c9.57,0,17.32-7.72,17.32-17.24v-3.65h-3.57
		C1224.73,526.76,1216.98,534.49,1216.98,544.01z"/>
	<path class="st0" d="M1216.98,547.64v3.65c0,9.52,7.75,17.24,17.32,17.24h3.57v-3.65c0-9.52-7.75-17.24-17.32-17.24H1216.98z"/>
	<path class="st0" d="M1196.09,564.89v3.65h3.57c9.57,0,17.32-7.72,17.32-17.24v-3.65h-3.57
		C1203.85,547.64,1196.09,555.36,1196.09,564.89z"/>
	<path class="st0" d="M1196.09,526.76v3.65c0,9.52,7.75,17.24,17.32,17.24h3.57v-3.65c0-9.52-7.75-17.24-17.32-17.24H1196.09z"/>
	<path class="st0" d="M1279.65,530.41v-3.65h-3.57c-9.57,0-17.32,7.72-17.32,17.24v3.65h3.57
		C1271.9,547.64,1279.65,539.93,1279.65,530.41z"/>
	<path class="st0" d="M1279.65,568.53v-3.65c0-9.52-7.75-17.24-17.32-17.24h-3.57v3.65c0,9.52,7.75,17.24,17.32,17.24H1279.65z"/>
	<path class="st0" d="M1241.43,568.53c9.57,0,17.32-7.72,17.32-17.24v-3.65h-3.57c-9.57,0-17.32,7.72-17.32,17.24v3.65H1241.43z"/>
	<path class="st0" d="M1255.2,547.64h3.57v-3.65c0-9.52-7.75-17.24-17.32-17.24h-3.57v3.65
		C1237.87,539.93,1245.62,547.64,1255.2,547.64z"/>
</g>
</svg>
