<?xml version="1.0" encoding="utf-8"?>
<!-- Generator: Adobe Illustrator 25.4.1, SVG Export Plug-In . SVG Version: 6.00 Build 0)  -->
<svg version="1.1" id="Layer_1" xmlns="http://www.w3.org/2000/svg" xmlns:xlink="http://www.w3.org/1999/xlink" x="0px" y="0px"
	 viewBox="0 0 1280 650" style="enable-background:new 0 0 1280 650;" xml:space="preserve">
<style type="text/css">
	.st0{fill:#49AEA6;}
	.st1{fill:none;}
	.st2{fill:#FFFFFF;}
	.st3{fill:#F1BB00;}
</style>
<g>
	<g>
		<g>
			<path id="XMLID_1186_" class="st0" d="M837.68,116.17c0,2.7-2.19,4.89-4.89,4.89c-2.7,0-4.89-2.19-4.89-4.89s2.19-4.89,4.89-4.89
				C835.49,111.25,837.68,113.47,837.68,116.17z"/>
			<path id="XMLID_1185_" class="st0" d="M863.11,116.17c0,2.7-2.19,4.89-4.89,4.89c-2.7,0-4.89-2.19-4.89-4.89s2.19-4.89,4.89-4.89
				C860.92,111.25,863.11,113.47,863.11,116.17z"/>
			<path id="XMLID_1184_" class="st0" d="M888.55,116.17c0,2.7-2.19,4.89-4.89,4.89c-2.7,0-4.89-2.19-4.89-4.89s2.19-4.89,4.89-4.89
				C886.35,111.25,888.55,113.47,888.55,116.17z"/>
			<path id="XMLID_1181_" class="st0" d="M837.68,91.1c0,2.7-2.19,4.89-4.89,4.89c-2.7,0-4.89-2.19-4.89-4.89
				c0-2.7,2.19-4.89,4.89-4.89S837.68,88.4,837.68,91.1z"/>
			<path id="XMLID_1180_" class="st0" d="M863.11,91.1c0,2.7-2.19,4.89-4.89,4.89c-2.7,0-4.89-2.19-4.89-4.89
				c0-2.7,2.19-4.89,4.89-4.89S863.11,88.4,863.11,91.1z"/>
			<path id="XMLID_1179_" class="st0" d="M888.55,91.1c0,2.7-2.19,4.89-4.89,4.89c-2.7,0-4.89-2.19-4.89-4.89
				c0-2.7,2.19-4.89,4.89-4.89C886.35,86.21,888.55,88.4,888.55,91.1z"/>
			<path id="XMLID_1177_" class="st0" d="M837.68,66.04c0,2.7-2.19,4.89-4.89,4.89c-2.7,0-4.89-2.19-4.89-4.89s2.19-4.89,4.89-4.89
				S837.68,63.34,837.68,66.04z"/>
			<path id="XMLID_1176_" class="st0" d="M863.11,66.04c0,2.7-2.19,4.89-4.89,4.89c-2.7,0-4.89-2.19-4.89-4.89s2.19-4.89,4.89-4.89
				S863.11,63.34,863.11,66.04z"/>
			<path id="XMLID_1175_" class="st0" d="M888.55,66.04c0,2.7-2.19,4.89-4.89,4.89c-2.7,0-4.89-2.19-4.89-4.89s2.19-4.89,4.89-4.89
				C886.35,61.15,888.55,63.34,888.55,66.04z"/>
		</g>
		<rect x="811.94" y="44.82" class="st1" width="92.55" height="92.55"/>
	</g>
	<rect x="909.64" y="50.47" class="st0" width="81.94" height="81.94"/>
	<path class="st2" d="M933.55,108.51c-22.63-22.63-23.91-58.02-23.91-58.02s35.41,1.27,58.02,23.91
		c22.63,22.63,23.91,58.02,23.91,58.02S956.17,131.12,933.55,108.51z"/>
	<g>
		<rect x="991.59" y="50.47" class="st3" width="81.94" height="81.94"/>
		<path class="st2" d="M1015.49,74.38c-22.63,22.63-23.91,58.02-23.91,58.02s35.41-1.27,58.02-23.91
			c22.63-22.63,23.91-58.02,23.91-58.02S1038.11,51.75,1015.49,74.38z"/>
	</g>
</g>
<g>
	<rect x="951" y="444.57" class="st1" width="105.56" height="105.56"/>
	<g>
		<g>
			<g>
				<path class="st0" d="M991.26,471.05c0-7.61-6.17-13.81-13.81-13.81c-7.61,0-13.81,6.17-13.81,13.81
					c0,7.61,6.17,13.81,13.81,13.81C985.09,484.85,991.26,478.66,991.26,471.05z"/>
			</g>
			<g>
				<path class="st0" d="M1043.9,471.05c0-7.61-6.17-13.81-13.81-13.81c-7.61,0-13.81,6.17-13.81,13.81
					c0,7.61,6.17,13.81,13.81,13.81C1037.71,484.85,1043.9,478.66,1043.9,471.05z"/>
			</g>
			<g>
				<path class="st0" d="M991.26,523.68c0-7.61-6.17-13.81-13.81-13.81c-7.61,0-13.81,6.17-13.81,13.81
					c0,7.61,6.17,13.81,13.81,13.81C985.09,537.47,991.26,531.28,991.26,523.68z"/>
			</g>
			<g>
				<path class="st0" d="M1043.9,523.68c0-7.61-6.17-13.81-13.81-13.81c-7.61,0-13.81,6.17-13.81,13.81
					c0,7.61,6.17,13.81,13.81,13.81C1037.71,537.47,1043.9,531.28,1043.9,523.68z"/>
			</g>
		</g>
	</g>
</g>
<g>
	<rect x="1173.42" y="543.49" class="st0" width="107.05" height="107.05"/>
	<path class="st2" d="M1200.19,565.59v4.68h4.56c12.26,0,22.19-9.89,22.19-22.08v-4.68h-4.56
		C1210.12,543.49,1200.19,553.4,1200.19,565.59z"/>
	<path class="st2" d="M1200.19,570.26v4.68c0,12.2,9.93,22.08,22.19,22.08h4.56v-4.68c0-12.2-9.93-22.08-22.19-22.08H1200.19z"/>
	<path class="st2" d="M1173.42,592.36v4.68h4.56c12.26,0,22.19-9.89,22.19-22.08v-4.68h-4.56
		C1183.35,570.26,1173.42,580.16,1173.42,592.36z"/>
	<path class="st2" d="M1173.42,543.49v4.68c0,12.2,9.93,22.08,22.19,22.08h4.56v-4.68c0-12.2-9.93-22.08-22.19-22.08H1173.42z"/>
	<path class="st2" d="M1280.48,548.17v-4.68h-4.56c-12.26,0-22.19,9.89-22.19,22.08v4.68h4.56
		C1270.54,570.26,1280.48,560.37,1280.48,548.17z"/>
	<path class="st2" d="M1280.48,597.01v-4.68c0-12.2-9.93-22.08-22.19-22.08h-4.56v4.68c0,12.2,9.93,22.08,22.19,22.08H1280.48z"/>
	<path class="st2" d="M1231.51,597.01c12.26,0,22.19-9.89,22.19-22.08v-4.68h-4.56c-12.26,0-22.19,9.89-22.19,22.08v4.68H1231.51z"
		/>
	<path class="st2" d="M1249.14,570.26h4.56v-4.68c0-12.2-9.93-22.08-22.19-22.08h-4.56v4.68
		C1226.95,560.37,1236.88,570.26,1249.14,570.26z"/>
	<path class="st2" d="M1200.19,619.12v4.68h4.56c12.26,0,22.19-9.89,22.19-22.08v-4.68h-4.56
		C1210.12,597.01,1200.19,606.93,1200.19,619.12z"/>
	<path class="st2" d="M1200.19,623.78v4.68c0,12.2,9.93,22.08,22.19,22.08h4.56v-4.68c0-12.2-9.93-22.08-22.19-22.08H1200.19z"/>
	<path class="st2" d="M1173.42,645.89v4.68h4.56c12.26,0,22.19-9.89,22.19-22.08v-4.68h-4.56
		C1183.35,623.78,1173.42,633.67,1173.42,645.89z"/>
	<path class="st2" d="M1173.42,597.01v4.68c0,12.2,9.93,22.08,22.19,22.08h4.56v-4.68c0-12.2-9.93-22.08-22.19-22.08H1173.42z"/>
	<path class="st2" d="M1280.48,601.69v-4.68h-4.56c-12.26,0-22.19,9.89-22.19,22.08v4.68h4.56
		C1270.54,623.78,1280.48,613.89,1280.48,601.69z"/>
	<path class="st2" d="M1280.48,650.54v-4.68c0-12.2-9.93-22.08-22.19-22.08h-4.56v4.68c0,12.2,9.93,22.08,22.19,22.08H1280.48z"/>
	<path class="st2" d="M1231.51,650.54c12.26,0,22.19-9.89,22.19-22.08v-4.68h-4.56c-12.26,0-22.19,9.89-22.19,22.08v4.68H1231.51z"
		/>
	<path class="st2" d="M1249.14,623.78h4.56v-4.68c0-12.2-9.93-22.08-22.19-22.08h-4.56v4.68
		C1226.95,613.89,1236.88,623.78,1249.14,623.78z"/>
</g>
<g>
	<rect x="1067.16" y="545.44" class="st1" width="105.56" height="105.56"/>
	<path class="st3" d="M1172.72,545.41c-58.29,0-105.56,47.24-105.56,105.52v0.04h48.14v-0.03c0-31.71,25.71-57.4,57.42-57.4V545.41
		L1172.72,545.41z"/>
</g>
</svg>
