<?xml version="1.0" encoding="utf-8"?>
<!-- Generator: Adobe Illustrator 25.4.1, SVG Export Plug-In . SVG Version: 6.00 Build 0)  -->
<svg version="1.1" id="Layer_1" xmlns="http://www.w3.org/2000/svg" xmlns:xlink="http://www.w3.org/1999/xlink" x="0px" y="0px"
	 viewBox="0 0 1024 768" style="enable-background:new 0 0 1024 768;" xml:space="preserve">
<style type="text/css">
	.st0{fill:#49AEA6;}
	.st1{fill:none;}
	.st2{fill:#F1BB00;}
	.st3{fill:#FFFFFF;}
</style>
<g>
	<rect class="st0" width="1024" height="768"/>
</g>
<g>
	<g>
		<rect x="35.62" y="11.37" class="st1" width="94.21" height="94.21"/>
		<path class="st2" d="M129.83,11.35c-52.03,0-94.21,42.16-94.21,94.17v0.04h42.97v-0.02c0-28.3,22.95-51.22,51.24-51.22V11.35
			L129.83,11.35z"/>
	</g>
	<g>
		<path class="st2" d="M186.21,123.4c0-17.53-14.21-31.79-31.79-31.79c-17.53,0-31.79,14.21-31.79,31.79
			c0,17.53,14.21,31.79,31.79,31.79C171.95,155.19,186.21,140.93,186.21,123.4z"/>
	</g>
	<g>
		<rect x="186.09" y="8.44" class="st3" width="78.91" height="78.91"/>
		<path class="st2" d="M194.16,82.19h18.67c0-5.18-4.17-9.38-9.32-9.38C198.33,72.82,194.16,77.01,194.16,82.19z"/>
		<path class="st2" d="M194.16,67.38h18.67c0-5.18-4.17-9.38-9.32-9.38C198.33,58.01,194.16,62.2,194.16,67.38z"/>
		<path class="st2" d="M194.16,52.57h18.67c0-5.18-4.17-9.38-9.32-9.38C198.33,43.2,194.16,47.39,194.16,52.57z"/>
		<path class="st2" d="M194.16,37.76h18.67c0-5.18-4.17-9.38-9.32-9.38C198.33,28.38,194.16,32.59,194.16,37.76z"/>
		<path class="st2" d="M194.16,22.95h18.67c0-5.18-4.17-9.38-9.32-9.38C198.33,13.57,194.16,17.78,194.16,22.95z"/>
		<path class="st2" d="M216.22,82.19h18.67c0-5.18-4.17-9.38-9.32-9.38C220.4,72.82,216.22,77.01,216.22,82.19z"/>
		<path class="st2" d="M216.22,67.38h18.67c0-5.18-4.17-9.38-9.32-9.38C220.4,58.01,216.22,62.2,216.22,67.38z"/>
		<path class="st2" d="M216.22,52.57h18.67c0-5.18-4.17-9.38-9.32-9.38C220.4,43.2,216.22,47.39,216.22,52.57z"/>
		<path class="st2" d="M216.22,37.76h18.67c0-5.18-4.17-9.38-9.32-9.38C220.4,28.38,216.22,32.59,216.22,37.76z"/>
		<path class="st2" d="M216.22,22.95h18.67c0-5.18-4.17-9.38-9.32-9.38C220.4,13.57,216.22,17.78,216.22,22.95z"/>
		<path class="st2" d="M238.27,82.19h18.67c0-5.18-4.17-9.38-9.32-9.38S238.27,77.01,238.27,82.19z"/>
		<path class="st2" d="M238.27,67.38h18.67c0-5.18-4.17-9.38-9.32-9.38S238.27,62.2,238.27,67.38z"/>
		<path class="st2" d="M238.27,52.57h18.67c0-5.18-4.17-9.38-9.32-9.38S238.27,47.39,238.27,52.57z"/>
		<path class="st2" d="M238.27,37.76h18.67c0-5.18-4.17-9.38-9.32-9.38S238.27,32.59,238.27,37.76z"/>
		<path class="st2" d="M238.27,22.95h18.67c0-5.18-4.17-9.38-9.32-9.38S238.27,17.78,238.27,22.95z"/>
	</g>
</g>
<g>
	<g>
		<path id="XMLID_1186_" class="st3" d="M705.52,69.73c0,2.58-2.09,4.67-4.67,4.67c-2.58,0-4.67-2.09-4.67-4.67s2.09-4.67,4.67-4.67
			C703.43,65.04,705.52,67.15,705.52,69.73z"/>
		<path id="XMLID_1185_" class="st3" d="M729.78,69.73c0,2.58-2.09,4.67-4.67,4.67c-2.58,0-4.67-2.09-4.67-4.67s2.09-4.67,4.67-4.67
			C727.69,65.04,729.78,67.15,729.78,69.73z"/>
		<path id="XMLID_1184_" class="st3" d="M754.06,69.73c0,2.58-2.09,4.67-4.67,4.67s-4.67-2.09-4.67-4.67s2.09-4.67,4.67-4.67
			C751.95,65.04,754.06,67.15,754.06,69.73z"/>
		<path id="XMLID_1181_" class="st3" d="M705.52,45.81c0,2.58-2.09,4.67-4.67,4.67c-2.58,0-4.67-2.09-4.67-4.67
			c0-2.58,2.09-4.67,4.67-4.67S705.52,43.23,705.52,45.81z"/>
		<path id="XMLID_1180_" class="st3" d="M729.78,45.81c0,2.58-2.09,4.67-4.67,4.67c-2.58,0-4.67-2.09-4.67-4.67
			c0-2.58,2.09-4.67,4.67-4.67C727.69,41.14,729.78,43.23,729.78,45.81z"/>
		<path id="XMLID_1179_" class="st3" d="M754.06,45.81c0,2.58-2.09,4.67-4.67,4.67s-4.67-2.09-4.67-4.67c0-2.58,2.09-4.67,4.67-4.67
			C751.95,41.14,754.06,43.23,754.06,45.81z"/>
		<path id="XMLID_1177_" class="st3" d="M705.52,21.91c0,2.58-2.09,4.67-4.67,4.67c-2.58,0-4.67-2.09-4.67-4.67s2.09-4.67,4.67-4.67
			S705.52,19.33,705.52,21.91z"/>
		<path id="XMLID_1176_" class="st3" d="M729.78,21.91c0,2.58-2.09,4.67-4.67,4.67c-2.58,0-4.67-2.09-4.67-4.67s2.09-4.67,4.67-4.67
			S729.78,19.33,729.78,21.91z"/>
		<path id="XMLID_1175_" class="st3" d="M754.06,21.91c0,2.58-2.09,4.67-4.67,4.67s-4.67-2.09-4.67-4.67s2.09-4.67,4.67-4.67
			C751.95,17.24,754.06,19.33,754.06,21.91z"/>
	</g>
	<rect x="680.96" y="1.66" class="st1" width="88.3" height="88.3"/>
</g>
<g>
	<g>
		<path class="st3" d="M936.38,182.78v3.88h3.79c10.17,0,18.42-8.2,18.42-18.32v-3.88h-3.79
			C944.62,164.44,936.38,172.67,936.38,182.78z"/>
		<path class="st3" d="M936.38,186.65v3.88c0,10.12,8.24,18.32,18.42,18.32h3.79v-3.88c0-10.12-8.24-18.32-18.42-18.32H936.38z"/>
		<path class="st3" d="M914.18,204.99v3.88h3.79c10.17,0,18.42-8.2,18.42-18.32v-3.88h-3.79
			C922.42,186.65,914.18,194.87,914.18,204.99z"/>
		<path class="st3" d="M914.18,164.44v3.88c0,10.12,8.24,18.32,18.42,18.32h3.79v-3.88c0-10.12-8.24-18.32-18.42-18.32
			C917.97,164.44,914.18,164.44,914.18,164.44z"/>
		<path class="st3" d="M1003,168.33v-3.88h-3.79c-10.17,0-18.42,8.2-18.42,18.32v3.88h3.79C994.76,186.65,1003,178.45,1003,168.33z"
			/>
		<path class="st3" d="M1003,208.86v-3.88c0-10.12-8.24-18.32-18.42-18.32h-3.79v3.88c0,10.12,8.24,18.32,18.42,18.32L1003,208.86
			L1003,208.86z"/>
		<path class="st3" d="M962.38,208.86c10.17,0,18.42-8.2,18.42-18.32v-3.88H977c-10.17,0-18.42,8.2-18.42,18.32v3.88L962.38,208.86
			L962.38,208.86z"/>
		<path class="st3" d="M977,186.65h3.79v-3.88c0-10.12-8.24-18.32-18.42-18.32h-3.79v3.88C958.59,178.45,966.83,186.65,977,186.65z"
			/>
		<path class="st3" d="M936.38,227.2v3.88h3.79c10.17,0,18.42-8.2,18.42-18.32v-3.88h-3.79
			C944.62,208.86,936.38,217.08,936.38,227.2z"/>
		<path class="st3" d="M936.38,231.06v3.88c0,10.12,8.24,18.32,18.42,18.32h3.79v-3.88c0-10.12-8.24-18.32-18.42-18.32H936.38z"/>
		<path class="st3" d="M914.18,249.4v3.88h3.79c10.17,0,18.42-8.2,18.42-18.32v-3.88h-3.79
			C922.42,231.06,914.18,239.27,914.18,249.4z"/>
		<path class="st3" d="M914.18,208.86v3.88c0,10.12,8.24,18.32,18.42,18.32h3.79v-3.88c0-10.12-8.24-18.32-18.42-18.32
			L914.18,208.86L914.18,208.86z"/>
		<path class="st3" d="M1003,212.74v-3.88h-3.79c-10.17,0-18.42,8.2-18.42,18.32v3.88h3.79C994.76,231.06,1003,222.86,1003,212.74z"
			/>
		<path class="st3" d="M1003,253.27v-3.88c0-10.12-8.24-18.32-18.42-18.32h-3.79v3.88c0,10.12,8.24,18.32,18.42,18.32L1003,253.27
			L1003,253.27z"/>
		<path class="st3" d="M962.38,253.27c10.17,0,18.42-8.2,18.42-18.32v-3.88H977c-10.17,0-18.42,8.2-18.42,18.32v3.88L962.38,253.27
			L962.38,253.27z"/>
		<path class="st3" d="M977,231.06h3.79v-3.88c0-10.12-8.24-18.32-18.42-18.32h-3.79v3.88C958.59,222.86,966.83,231.06,977,231.06z"
			/>
	</g>
	<g>
		<g>
			<path class="st2" d="M836.9,181.07c0-9.28-7.52-16.83-16.83-16.83c-9.28,0-16.83,7.52-16.83,16.83c0,9.28,7.52,16.83,16.83,16.83
				S836.9,190.35,836.9,181.07z"/>
		</g>
		<g>
			<path class="st2" d="M901.08,181.07c0-9.28-7.52-16.83-16.83-16.83c-9.28,0-16.83,7.52-16.83,16.83
				c0,9.28,7.52,16.83,16.83,16.83C893.53,197.9,901.08,190.35,901.08,181.07z"/>
		</g>
		<g>
			<path class="st2" d="M836.9,245.22c0-9.28-7.52-16.83-16.83-16.83c-9.28,0-16.83,7.52-16.83,16.83c0,9.28,7.52,16.83,16.83,16.83
				S836.9,254.5,836.9,245.22z"/>
		</g>
		<g>
			<path class="st2" d="M901.08,245.22c0-9.28-7.52-16.83-16.83-16.83c-9.28,0-16.83,7.52-16.83,16.83
				c0,9.28,7.52,16.83,16.83,16.83C893.53,262.05,901.08,254.5,901.08,245.22z"/>
		</g>
	</g>
</g>
<path class="st3" d="M890.71,345.19c-47.29,0-85.64,38.33-85.64,85.6v0.04h39.06v-0.02c0-25.72,20.86-46.56,46.58-46.56V345.19
	L890.71,345.19z"/>
<g>
	<g>
		<rect x="24.41" y="422.05" class="st0" width="94.94" height="94.94"/>
		<path class="st3" d="M52.11,489.3c-26.22-26.22-27.7-67.23-27.7-67.23s41.03,1.48,67.23,27.7c26.22,26.22,27.7,67.23,27.7,67.23
			S78.32,515.5,52.11,489.3z"/>
	</g>
	<g>
		<rect x="119.35" y="422.06" class="st2" width="94.94" height="94.94"/>
		<path class="st3" d="M147.05,449.77c-26.22,26.22-27.7,67.23-27.7,67.23s41.03-1.48,67.23-27.7c26.22-26.22,27.7-67.23,27.7-67.23
			S173.26,423.54,147.05,449.77z"/>
	</g>
</g>
</svg>
