<?xml version="1.0" encoding="utf-8"?>
<!-- Generator: Adobe Illustrator 25.4.1, SVG Export Plug-In . SVG Version: 6.00 Build 0)  -->
<svg version="1.1" id="Layer_1" xmlns="http://www.w3.org/2000/svg" xmlns:xlink="http://www.w3.org/1999/xlink" x="0px" y="0px"
	 viewBox="0 0 156 156" style="enable-background:new 0 0 156 156;" xml:space="preserve">
<style type="text/css">
	.st0{fill:#49AEA6;}
</style>
<g>
	<path id="XMLID_1186_" class="st0" d="M43.69,120.71c0,4.56-3.7,8.26-8.26,8.26c-4.56,0-8.26-3.7-8.26-8.26
		c0-4.56,3.7-8.26,8.26-8.26C39.99,112.41,43.69,116.14,43.69,120.71z"/>
	<path id="XMLID_1185_" class="st0" d="M86.61,120.71c0,4.56-3.7,8.26-8.26,8.26c-4.56,0-8.26-3.7-8.26-8.26
		c0-4.56,3.7-8.26,8.26-8.26C82.91,112.41,86.61,116.14,86.61,120.71z"/>
	<path id="XMLID_1184_" class="st0" d="M129.56,120.71c0,4.56-3.7,8.26-8.26,8.26c-4.56,0-8.26-3.7-8.26-8.26
		c0-4.56,3.7-8.26,8.26-8.26C125.83,112.41,129.56,116.14,129.56,120.71z"/>
	<path id="XMLID_1181_" class="st0" d="M43.69,78.39c0,4.56-3.7,8.26-8.26,8.26c-4.56,0-8.26-3.7-8.26-8.26s3.7-8.26,8.26-8.26
		C39.99,70.12,43.69,73.82,43.69,78.39z"/>
	<path id="XMLID_1180_" class="st0" d="M86.61,78.39c0,4.56-3.7,8.26-8.26,8.26c-4.56,0-8.26-3.7-8.26-8.26s3.7-8.26,8.26-8.26
		C82.91,70.12,86.61,73.82,86.61,78.39z"/>
	<path id="XMLID_1179_" class="st0" d="M129.56,78.39c0,4.56-3.7,8.26-8.26,8.26c-4.56,0-8.26-3.7-8.26-8.26s3.7-8.26,8.26-8.26
		C125.83,70.12,129.56,73.82,129.56,78.39z"/>
	<path id="XMLID_1177_" class="st0" d="M43.69,36.1c0,4.56-3.7,8.26-8.26,8.26c-4.56,0-8.26-3.7-8.26-8.26s3.7-8.26,8.26-8.26
		C39.99,27.84,43.69,31.54,43.69,36.1z"/>
	<path id="XMLID_1176_" class="st0" d="M86.61,36.1c0,4.56-3.7,8.26-8.26,8.26c-4.56,0-8.26-3.7-8.26-8.26s3.7-8.26,8.26-8.26
		C82.91,27.84,86.61,31.54,86.61,36.1z"/>
	<path id="XMLID_1175_" class="st0" d="M129.56,36.1c0,4.56-3.7,8.26-8.26,8.26c-4.56,0-8.26-3.7-8.26-8.26s3.7-8.26,8.26-8.26
		C125.83,27.84,129.56,31.54,129.56,36.1z"/>
</g>
</svg>
