<?xml version="1.0" encoding="utf-8"?>
<!-- Generator: Adobe Illustrator 25.4.1, SVG Export Plug-In . SVG Version: 6.00 Build 0)  -->
<svg version="1.1" id="Layer_1" xmlns="http://www.w3.org/2000/svg" xmlns:xlink="http://www.w3.org/1999/xlink" x="0px" y="0px"
	 viewBox="0 0 156 156" style="enable-background:new 0 0 156 156;" xml:space="preserve">
<style type="text/css">
	.st0{fill:#F1BB00;}
</style>
<g>
	<g>
		<path class="st0" d="M59.84,39.47c0-11.26-9.13-20.43-20.43-20.43c-11.26,0-20.43,9.13-20.43,20.43
			c0,11.26,9.13,20.43,20.43,20.43C50.71,59.89,59.84,50.73,59.84,39.47z"/>
	</g>
	<g>
		<path class="st0" d="M137.74,39.47c0-11.26-9.13-20.43-20.43-20.43c-11.26,0-20.43,9.13-20.43,20.43
			c0,11.26,9.13,20.43,20.43,20.43C128.58,59.89,137.74,50.73,137.74,39.47z"/>
	</g>
	<g>
		<path class="st0" d="M59.84,117.34c0-11.26-9.13-20.43-20.43-20.43c-11.26,0-20.43,9.13-20.43,20.43
			c0,11.26,9.13,20.43,20.43,20.43C50.71,137.77,59.84,128.6,59.84,117.34z"/>
	</g>
	<g>
		<path class="st0" d="M137.74,117.34c0-11.26-9.13-20.43-20.43-20.43c-11.26,0-20.43,9.13-20.43,20.43
			c0,11.26,9.13,20.43,20.43,20.43C128.58,137.77,137.74,128.6,137.74,117.34z"/>
	</g>
</g>
</svg>
