<?xml version="1.0" encoding="utf-8"?>
<!-- Generator: Adobe Illustrator 25.4.1, SVG Export Plug-In . SVG Version: 6.00 Build 0)  -->
<svg version="1.1" id="Layer_1" xmlns="http://www.w3.org/2000/svg" xmlns:xlink="http://www.w3.org/1999/xlink" x="0px" y="0px"
	 viewBox="0 0 312 312" style="enable-background:new 0 0 312 312;" xml:space="preserve">
<style type="text/css">
	.st0{fill:#49AEA6;}
</style>
<g>
	<g>
		<path class="st0" d="M137.2,116.87c0-11.26-9.13-20.43-20.43-20.43c-11.26,0-20.43,9.13-20.43,20.43
			c0,11.26,9.13,20.43,20.43,20.43C128.07,137.3,137.2,128.14,137.2,116.87z"/>
	</g>
	<g>
		<path class="st0" d="M215.1,116.87c0-11.26-9.13-20.43-20.43-20.43c-11.26,0-20.43,9.13-20.43,20.43
			c0,11.26,9.13,20.43,20.43,20.43C205.94,137.3,215.1,128.14,215.1,116.87z"/>
	</g>
	<g>
		<path class="st0" d="M137.2,194.74c0-11.26-9.13-20.43-20.43-20.43c-11.26,0-20.43,9.13-20.43,20.43
			c0,11.26,9.13,20.43,20.43,20.43C128.07,215.17,137.2,206.01,137.2,194.74z"/>
	</g>
	<g>
		<path class="st0" d="M215.1,194.74c0-11.26-9.13-20.43-20.43-20.43c-11.26,0-20.43,9.13-20.43,20.43
			c0,11.26,9.13,20.43,20.43,20.43C205.94,215.17,215.1,206.01,215.1,194.74z"/>
	</g>
</g>
</svg>
