<?xml version="1.0" encoding="utf-8"?>
<!-- Generator: Adobe Illustrator 25.4.1, SVG Export Plug-In . SVG Version: 6.00 Build 0)  -->
<svg version="1.1" id="Layer_1" xmlns="http://www.w3.org/2000/svg" xmlns:xlink="http://www.w3.org/1999/xlink" x="0px" y="0px"
	 viewBox="0 0 312 312" style="enable-background:new 0 0 312 312;" xml:space="preserve">
<style type="text/css">
	.st0{fill:#FFFFFF;}
	.st1{fill:#F1BB00;}
</style>
<g>
	<rect x="-0.08" y="0" class="st0" width="312.08" height="312.08"/>
	<path class="st1" d="M31.8,291.71h73.83c0-20.5-16.51-37.08-36.88-37.08C48.31,254.63,31.8,271.21,31.8,291.71z"/>
	<path class="st1" d="M31.8,233.13h73.83c0-20.5-16.51-37.08-36.88-37.08C48.31,196.05,31.8,212.63,31.8,233.13z"/>
	<path class="st1" d="M31.8,174.55h73.83c0-20.5-16.51-37.08-36.88-37.08C48.31,137.47,31.8,154.04,31.8,174.55z"/>
	<path class="st1" d="M31.8,115.97h73.83c0-20.5-16.51-37.08-36.88-37.08C48.31,78.89,31.8,95.53,31.8,115.97z"/>
	<path class="st1" d="M31.8,57.38h73.83c0-20.5-16.51-37.08-36.88-37.08C48.31,20.3,31.8,36.95,31.8,57.38z"/>
	<path class="st1" d="M119.08,291.71h73.83c0-20.5-16.51-37.08-36.88-37.08C135.59,254.63,119.08,271.21,119.08,291.71z"/>
	<path class="st1" d="M119.08,233.13h73.83c0-20.5-16.51-37.08-36.88-37.08C135.59,196.05,119.08,212.63,119.08,233.13z"/>
	<path class="st1" d="M119.08,174.55h73.83c0-20.5-16.51-37.08-36.88-37.08C135.59,137.47,119.08,154.04,119.08,174.55z"/>
	<path class="st1" d="M119.08,115.97h73.83c0-20.5-16.51-37.08-36.88-37.08C135.59,78.89,119.08,95.53,119.08,115.97z"/>
	<path class="st1" d="M119.08,57.38h73.83c0-20.5-16.51-37.08-36.88-37.08C135.59,20.3,119.08,36.95,119.08,57.38z"/>
	<path class="st1" d="M206.29,291.71h73.83c0-20.5-16.51-37.08-36.88-37.08S206.29,271.21,206.29,291.71z"/>
	<path class="st1" d="M206.29,233.13h73.83c0-20.5-16.51-37.08-36.88-37.08S206.29,212.63,206.29,233.13z"/>
	<path class="st1" d="M206.29,174.55h73.83c0-20.5-16.51-37.08-36.88-37.08S206.29,154.04,206.29,174.55z"/>
	<path class="st1" d="M206.29,115.97h73.83c0-20.5-16.51-37.08-36.88-37.08S206.29,95.53,206.29,115.97z"/>
	<path class="st1" d="M206.29,57.38h73.83c0-20.5-16.51-37.08-36.88-37.08C222.86,20.3,206.29,36.95,206.29,57.38z"/>
</g>
</svg>
