<?xml version="1.0" encoding="utf-8"?>
<!-- Generator: Adobe Illustrator 25.4.1, SVG Export Plug-In . SVG Version: 6.00 Build 0)  -->
<svg version="1.1" id="Layer_1" xmlns="http://www.w3.org/2000/svg" xmlns:xlink="http://www.w3.org/1999/xlink" x="0px" y="0px"
	 viewBox="0 0 312 156" style="enable-background:new 0 0 312 156;" xml:space="preserve">
<style type="text/css">
	.st0{fill:#FFFFFF;}
	.st1{fill:#F1BB00;}
</style>
<g>
	<rect x="155.44" y="-0.37" class="st0" width="156.21" height="156.21"/>
	<path class="st1" d="M171.4,145.65h36.95c0-10.26-8.26-18.56-18.46-18.56C179.67,127.09,171.4,135.38,171.4,145.65z"/>
	<path class="st1" d="M171.4,116.32h36.95c0-10.26-8.26-18.56-18.46-18.56C179.67,97.76,171.4,106.06,171.4,116.32z"/>
	<path class="st1" d="M171.4,87h36.95c0-10.26-8.26-18.56-18.46-18.56C179.67,68.44,171.4,76.74,171.4,87z"/>
	<path class="st1" d="M171.4,57.68h36.95c0-10.26-8.26-18.56-18.46-18.56C179.67,39.12,171.4,47.45,171.4,57.68z"/>
	<path class="st1" d="M171.4,28.36h36.95c0-10.26-8.26-18.56-18.46-18.56C179.67,9.8,171.4,18.13,171.4,28.36z"/>
	<path class="st1" d="M215.09,145.65h36.95c0-10.26-8.26-18.56-18.46-18.56C223.35,127.09,215.09,135.38,215.09,145.65z"/>
	<path class="st1" d="M215.09,116.32h36.95c0-10.26-8.26-18.56-18.46-18.56C223.35,97.76,215.09,106.06,215.09,116.32z"/>
	<path class="st1" d="M215.09,87h36.95c0-10.26-8.26-18.56-18.46-18.56C223.35,68.44,215.09,76.74,215.09,87z"/>
	<path class="st1" d="M215.09,57.68h36.95c0-10.26-8.26-18.56-18.46-18.56C223.35,39.12,215.09,47.45,215.09,57.68z"/>
	<path class="st1" d="M215.09,28.36h36.95c0-10.26-8.26-18.56-18.46-18.56C223.35,9.8,215.09,18.13,215.09,28.36z"/>
	<path class="st1" d="M258.74,145.65h36.95c0-10.26-8.26-18.56-18.46-18.56C267.04,127.09,258.74,135.38,258.74,145.65z"/>
	<path class="st1" d="M258.74,116.32h36.95c0-10.26-8.26-18.56-18.46-18.56C267.04,97.76,258.74,106.06,258.74,116.32z"/>
	<path class="st1" d="M258.74,87h36.95c0-10.26-8.26-18.56-18.46-18.56C267.04,68.44,258.74,76.74,258.74,87z"/>
	<path class="st1" d="M258.74,57.68h36.95c0-10.26-8.26-18.56-18.46-18.56C267.04,39.12,258.74,47.45,258.74,57.68z"/>
	<path class="st1" d="M258.74,28.36h36.95c0-10.26-8.26-18.56-18.46-18.56C267.04,9.8,258.74,18.13,258.74,28.36z"/>
</g>
<path class="st1" d="M155.8-0.4C69.54-0.4-0.41,69.51-0.41,155.74v0.07h71.24v-0.03c0-46.92,38.05-84.94,84.97-84.94V-0.4L155.8-0.4
	z"/>
</svg>
