<?xml version="1.0" encoding="utf-8"?>
<!-- Generator: Adobe Illustrator 25.4.1, SVG Export Plug-In . SVG Version: 6.00 Build 0)  -->
<svg version="1.1" id="Layer_1" xmlns="http://www.w3.org/2000/svg" xmlns:xlink="http://www.w3.org/1999/xlink" x="0px" y="0px"
	 viewBox="0 0 312 156" style="enable-background:new 0 0 312 156;" xml:space="preserve">
<style type="text/css">
	.st0{fill:#F1BB00;}
	.st1{fill:#49AEA6;}
	.st2{fill:#FFFFFF;}
</style>
<path class="st0" d="M155.8-0.4C69.54-0.4-0.41,69.51-0.41,155.74v0.07h71.24v-0.03c0-46.92,38.05-84.94,84.97-84.94V-0.4L155.8-0.4
	z"/>
<g>
	<rect x="155.52" y="-0.4" class="st1" width="156.21" height="156.21"/>
	<path class="st2" d="M194.57,31.85v6.83h6.66c17.89,0,32.39-14.43,32.39-32.22v-6.83h-6.66C209.07-0.4,194.57,14.06,194.57,31.85z"
		/>
	<path class="st2" d="M194.57,38.65v6.83c0,17.79,14.49,32.22,32.39,32.22h6.66v-6.83c0-17.79-14.49-32.22-32.39-32.22H194.57z"/>
	<path class="st2" d="M155.52,70.91v6.83h6.66c17.89,0,32.39-14.43,32.39-32.22v-6.83h-6.66C170.01,38.65,155.52,53.11,155.52,70.91
		z"/>
	<path class="st2" d="M155.52-0.4v6.83c0,17.79,14.49,32.22,32.39,32.22h6.66v-6.83c0-17.79-14.49-32.22-32.39-32.22H155.52z"/>
	<path class="st2" d="M311.73,6.43V-0.4h-6.66c-17.89,0-32.39,14.43-32.39,32.22v6.83h6.66C297.23,38.65,311.73,24.22,311.73,6.43z"
		/>
	<path class="st2" d="M311.73,77.7v-6.83c0-17.79-14.49-32.22-32.39-32.22h-6.66v6.83c0,17.79,14.49,32.22,32.39,32.22H311.73z"/>
	<path class="st2" d="M240.29,77.7c17.89,0,32.39-14.43,32.39-32.22v-6.83h-6.66c-17.89,0-32.39,14.43-32.39,32.22v6.83H240.29z"/>
	<path class="st2" d="M266.01,38.65h6.66v-6.83c0-17.79-14.49-32.22-32.39-32.22h-6.66v6.83C233.62,24.22,248.12,38.65,266.01,38.65
		z"/>
	<path class="st2" d="M194.57,109.96v6.83h6.66c17.89,0,32.39-14.43,32.39-32.22v-6.83h-6.66
		C209.07,77.7,194.57,92.17,194.57,109.96z"/>
	<path class="st2" d="M194.57,116.76v6.83c0,17.79,14.49,32.22,32.39,32.22h6.66v-6.83c0-17.79-14.49-32.22-32.39-32.22H194.57z"/>
	<path class="st2" d="M155.52,149.01v6.83h6.66c17.89,0,32.39-14.43,32.39-32.22v-6.83h-6.66
		C170.01,116.76,155.52,131.18,155.52,149.01z"/>
	<path class="st2" d="M155.52,77.7v6.83c0,17.79,14.49,32.22,32.39,32.22h6.66v-6.83c0-17.79-14.49-32.22-32.39-32.22H155.52z"/>
	<path class="st2" d="M311.73,84.53V77.7h-6.66c-17.89,0-32.39,14.43-32.39,32.22v6.83h6.66
		C297.23,116.76,311.73,102.33,311.73,84.53z"/>
	<path class="st2" d="M311.73,155.81v-6.83c0-17.79-14.49-32.22-32.39-32.22h-6.66v6.83c0,17.79,14.49,32.22,32.39,32.22H311.73z"/>
	<path class="st2" d="M240.29,155.81c17.89,0,32.39-14.43,32.39-32.22v-6.83h-6.66c-17.89,0-32.39,14.43-32.39,32.22v6.83H240.29z"
		/>
	<path class="st2" d="M266.01,116.76h6.66v-6.83c0-17.79-14.49-32.22-32.39-32.22h-6.66v6.83
		C233.62,102.33,248.12,116.76,266.01,116.76z"/>
</g>
</svg>
