<?xml version="1.0" encoding="utf-8"?>
<!-- Generator: Adobe Illustrator 25.4.1, SVG Export Plug-In . SVG Version: 6.00 Build 0)  -->
<svg version="1.1" id="Layer_1" xmlns="http://www.w3.org/2000/svg" xmlns:xlink="http://www.w3.org/1999/xlink" x="0px" y="0px"
	 viewBox="0 0 600 600" style="enable-background:new 0 0 600 600;" xml:space="preserve">
<style type="text/css">
	.st0{fill:#49AEA6;}
	.st1{fill:#FFFFFF;}
	.st2{fill:#F1BB00;}
</style>
<g>
	<g>
		<rect x="6.6" y="430.83" class="st0" width="156.21" height="156.21"/>
		<path class="st1" d="M52.18,541.47C9.03,498.32,6.6,430.85,6.6,430.85s67.51,2.43,110.63,45.58
			c43.15,43.15,45.58,110.63,45.58,110.63S95.3,584.59,52.18,541.47z"/>
	</g>
	<g>
		<rect x="162.82" y="430.84" class="st2" width="156.21" height="156.21"/>
		<path class="st1" d="M208.39,476.43c-43.15,43.15-45.58,110.63-45.58,110.63s67.51-2.43,110.63-45.58
			c43.15-43.15,45.58-110.63,45.58-110.63S251.51,433.28,208.39,476.43z"/>
	</g>
</g>
<g>
	<rect x="162.71" y="274.82" class="st0" width="156.21" height="156.21"/>
	<path class="st1" d="M201.76,307.08v6.83h6.66c17.89,0,32.39-14.43,32.39-32.22v-6.83h-6.66
		C216.25,274.82,201.76,289.29,201.76,307.08z"/>
	<path class="st1" d="M201.76,313.88v6.83c0,17.79,14.49,32.22,32.39,32.22h6.66v-6.83c0-17.79-14.49-32.22-32.39-32.22H201.76z"/>
	<path class="st1" d="M162.71,346.13v6.83h6.66c17.89,0,32.39-14.43,32.39-32.22v-6.83h-6.66
		C177.2,313.88,162.71,328.34,162.71,346.13z"/>
	<path class="st1" d="M162.71,274.82v6.83c0,17.79,14.49,32.22,32.39,32.22h6.66v-6.83c0-17.79-14.49-32.22-32.39-32.22H162.71z"/>
	<path class="st1" d="M318.92,281.66v-6.83h-6.66c-17.89,0-32.39,14.43-32.39,32.22v6.83h6.66
		C304.42,313.88,318.92,299.45,318.92,281.66z"/>
	<path class="st1" d="M318.92,352.93v-6.83c0-17.79-14.49-32.22-32.39-32.22h-6.66v6.83c0,17.79,14.49,32.22,32.39,32.22H318.92z"/>
	<path class="st1" d="M247.48,352.93c17.89,0,32.39-14.43,32.39-32.22v-6.83h-6.66c-17.89,0-32.39,14.43-32.39,32.22v6.83H247.48z"
		/>
	<path class="st1" d="M273.2,313.88h6.66v-6.83c0-17.79-14.49-32.22-32.39-32.22h-6.66v6.83
		C240.81,299.45,255.31,313.88,273.2,313.88z"/>
	<path class="st1" d="M201.76,385.18v6.83h6.66c17.89,0,32.39-14.43,32.39-32.22v-6.83h-6.66
		C216.25,352.93,201.76,367.39,201.76,385.18z"/>
	<path class="st1" d="M201.76,391.98v6.83c0,17.79,14.49,32.22,32.39,32.22h6.66v-6.83c0-17.79-14.49-32.22-32.39-32.22H201.76z"/>
	<path class="st1" d="M162.71,424.24v6.83h6.66c17.89,0,32.39-14.43,32.39-32.22v-6.83h-6.66
		C177.2,391.98,162.71,406.41,162.71,424.24z"/>
	<path class="st1" d="M162.71,352.93v6.83c0,17.79,14.49,32.22,32.39,32.22h6.66v-6.83c0-17.79-14.49-32.22-32.39-32.22H162.71z"/>
	<path class="st1" d="M318.92,359.76v-6.83h-6.66c-17.89,0-32.39,14.43-32.39,32.22v6.83h6.66
		C304.42,391.98,318.92,377.55,318.92,359.76z"/>
	<path class="st1" d="M318.92,431.03v-6.83c0-17.79-14.49-32.22-32.39-32.22h-6.66v6.83c0,17.79,14.49,32.22,32.39,32.22H318.92z"/>
	<path class="st1" d="M247.48,431.03c17.89,0,32.39-14.43,32.39-32.22v-6.83h-6.66c-17.89,0-32.39,14.43-32.39,32.22v6.83H247.48z"
		/>
	<path class="st1" d="M273.2,391.98h6.66v-6.83c0-17.79-14.49-32.22-32.39-32.22h-6.66v6.83
		C240.81,377.55,255.31,391.98,273.2,391.98z"/>
</g>
<g>
	<path id="XMLID_1186_" class="st0" d="M347.14,263.25c0,4.56-3.7,8.26-8.26,8.26c-4.56,0-8.26-3.7-8.26-8.26
		c0-4.56,3.7-8.26,8.26-8.26C343.44,254.95,347.14,258.68,347.14,263.25z"/>
	<path id="XMLID_1185_" class="st0" d="M390.06,263.25c0,4.56-3.7,8.26-8.26,8.26c-4.56,0-8.26-3.7-8.26-8.26
		c0-4.56,3.7-8.26,8.26-8.26C386.36,254.95,390.06,258.68,390.06,263.25z"/>
	<path id="XMLID_1184_" class="st0" d="M433.01,263.25c0,4.56-3.7,8.26-8.26,8.26c-4.56,0-8.26-3.7-8.26-8.26
		c0-4.56,3.7-8.26,8.26-8.26C429.28,254.95,433.01,258.68,433.01,263.25z"/>
	<path id="XMLID_1181_" class="st0" d="M347.14,220.93c0,4.56-3.7,8.26-8.26,8.26c-4.56,0-8.26-3.7-8.26-8.26
		c0-4.56,3.7-8.26,8.26-8.26C343.44,212.67,347.14,216.36,347.14,220.93z"/>
	<path id="XMLID_1180_" class="st0" d="M390.06,220.93c0,4.56-3.7,8.26-8.26,8.26c-4.56,0-8.26-3.7-8.26-8.26
		c0-4.56,3.7-8.26,8.26-8.26C386.36,212.67,390.06,216.36,390.06,220.93z"/>
	<path id="XMLID_1179_" class="st0" d="M433.01,220.93c0,4.56-3.7,8.26-8.26,8.26c-4.56,0-8.26-3.7-8.26-8.26
		c0-4.56,3.7-8.26,8.26-8.26C429.28,212.67,433.01,216.36,433.01,220.93z"/>
	<path id="XMLID_1177_" class="st0" d="M347.14,178.64c0,4.56-3.7,8.26-8.26,8.26c-4.56,0-8.26-3.7-8.26-8.26
		c0-4.56,3.7-8.26,8.26-8.26C343.44,170.38,347.14,174.08,347.14,178.64z"/>
	<path id="XMLID_1176_" class="st0" d="M390.06,178.64c0,4.56-3.7,8.26-8.26,8.26c-4.56,0-8.26-3.7-8.26-8.26
		c0-4.56,3.7-8.26,8.26-8.26C386.36,170.38,390.06,174.08,390.06,178.64z"/>
	<path id="XMLID_1175_" class="st0" d="M433.01,178.64c0,4.56-3.7,8.26-8.26,8.26c-4.56,0-8.26-3.7-8.26-8.26
		c0-4.56,3.7-8.26,8.26-8.26C429.28,170.38,433.01,174.08,433.01,178.64z"/>
</g>
<path class="st2" d="M599.92,13.84c-86.27,0-156.21,69.91-156.21,156.14v0.07h71.24v-0.03c0-46.92,38.05-84.94,84.97-84.94V13.84
	L599.92,13.84z"/>
</svg>
