<?xml version="1.0" encoding="utf-8"?>
<!-- Generator: Adobe Illustrator 25.4.1, SVG Export Plug-In . SVG Version: 6.00 Build 0)  -->
<svg version="1.1" id="Layer_1" xmlns="http://www.w3.org/2000/svg" xmlns:xlink="http://www.w3.org/1999/xlink" x="0px" y="0px"
	 viewBox="0 0 1280 500" style="enable-background:new 0 0 1280 500;" xml:space="preserve">
<style type="text/css">
	.st0{fill:#49AEA6;}
	.st1{fill:#FFFFFF;}
	.st2{fill:#F1BB00;}
</style>
<g>
	<rect x="1195.23" y="0.46" class="st0" width="86.32" height="86.32"/>
	<path class="st1" d="M1216.81,18.29v3.77h3.68c9.89,0,17.9-7.97,17.9-17.81V0.48h-3.68C1224.82,0.46,1216.81,8.45,1216.81,18.29z"
		/>
	<path class="st1" d="M1216.81,22.04v3.77c0,9.83,8.01,17.81,17.9,17.81h3.68v-3.77c0-9.83-8.01-17.81-17.9-17.81H1216.81z"/>
	<path class="st1" d="M1195.23,39.87v3.77h3.68c9.89,0,17.9-7.97,17.9-17.81v-3.77h-3.68C1203.24,22.04,1195.23,30.03,1195.23,39.87
		z"/>
	<path class="st1" d="M1195.23,0.46v3.77c0,9.83,8.01,17.81,17.9,17.81h3.68v-3.77c0-9.83-8.01-17.81-17.9-17.81H1195.23z"/>
	<path class="st1" d="M1281.55,4.24V0.46h-3.68c-9.89,0-17.9,7.97-17.9,17.81v3.77h3.68C1273.54,22.04,1281.55,14.07,1281.55,4.24z"
		/>
	<path class="st1" d="M1281.55,43.62v-3.77c0-9.83-8.01-17.81-17.9-17.81h-3.68v3.77c0,9.83,8.01,17.81,17.9,17.81H1281.55z"/>
	<path class="st1" d="M1242.07,43.62c9.89,0,17.9-7.97,17.9-17.81v-3.77h-3.68c-9.89,0-17.9,7.97-17.9,17.81v3.77H1242.07z"/>
	<path class="st1" d="M1256.29,22.04h3.68v-3.77c0-9.83-8.01-17.81-17.9-17.81h-3.68v3.77C1238.39,14.07,1246.4,22.04,1256.29,22.04
		z"/>
	<path class="st1" d="M1216.81,61.45v3.77h3.68c9.89,0,17.9-7.97,17.9-17.81v-3.77h-3.68C1224.82,43.62,1216.81,51.61,1216.81,61.45
		z"/>
	<path class="st1" d="M1216.81,65.2v3.77c0,9.83,8.01,17.81,17.9,17.81h3.68v-3.77c0-9.83-8.01-17.81-17.9-17.81H1216.81z"/>
	<path class="st1" d="M1195.23,83.03v3.77h3.68c9.89,0,17.9-7.97,17.9-17.81v-3.77h-3.68C1203.24,65.2,1195.23,73.17,1195.23,83.03z
		"/>
	<path class="st1" d="M1195.23,43.62v3.77c0,9.83,8.01,17.81,17.9,17.81h3.68v-3.77c0-9.83-8.01-17.81-17.9-17.81H1195.23z"/>
	<path class="st1" d="M1281.55,47.4v-3.77h-3.68c-9.89,0-17.9,7.97-17.9,17.81v3.77h3.68C1273.54,65.2,1281.55,57.23,1281.55,47.4z"
		/>
	<path class="st1" d="M1281.55,86.78v-3.77c0-9.83-8.01-17.81-17.9-17.81h-3.68v3.77c0,9.83,8.01,17.81,17.9,17.81H1281.55z"/>
	<path class="st1" d="M1242.07,86.78c9.89,0,17.9-7.97,17.9-17.81V65.2h-3.68c-9.89,0-17.9,7.97-17.9,17.81v3.77H1242.07z"/>
	<path class="st1" d="M1256.29,65.2h3.68v-3.77c0-9.83-8.01-17.81-17.9-17.81h-3.68v3.77C1238.39,57.23,1246.4,65.2,1256.29,65.2z"
		/>
</g>
<g>
	<g>
		<rect x="1109" y="87.22" class="st0" width="86.32" height="86.32"/>
		<path class="st1" d="M1134.19,148.36c-23.85-23.85-25.19-61.13-25.19-61.13s37.31,1.34,61.13,25.19
			c23.85,23.85,25.19,61.13,25.19,61.13S1158.02,172.19,1134.19,148.36z"/>
	</g>
	<g>
		<rect x="1195.33" y="87.22" class="st2" width="86.32" height="86.32"/>
		<path class="st1" d="M1220.51,112.42c-23.85,23.85-25.19,61.13-25.19,61.13s37.31-1.34,61.13-25.19
			c23.85-23.85,25.19-61.13,25.19-61.13S1244.34,88.57,1220.51,112.42z"/>
	</g>
</g>
<path class="st2" d="M880.95,406c-41.19,0-74.58,33.37-74.58,74.54v0.03h34.01v-0.02c0-22.4,18.17-40.55,40.57-40.55V406L880.95,406
	z"/>
<g>
	<path id="XMLID_1186_" class="st0" d="M1216.92,467.16c0,3.02-2.44,5.46-5.46,5.46s-5.46-2.44-5.46-5.46s2.44-5.46,5.46-5.46
		C1214.48,461.68,1216.92,464.14,1216.92,467.16z"/>
	<path id="XMLID_1185_" class="st0" d="M1245.29,467.16c0,3.02-2.44,5.46-5.46,5.46s-5.46-2.44-5.46-5.46s2.44-5.46,5.46-5.46
		C1242.85,461.68,1245.29,464.14,1245.29,467.16z"/>
	<path id="XMLID_1184_" class="st0" d="M1273.68,467.16c0,3.02-2.44,5.46-5.46,5.46c-3.02,0-5.46-2.44-5.46-5.46
		s2.44-5.46,5.46-5.46C1271.21,461.68,1273.68,464.14,1273.68,467.16z"/>
	<path id="XMLID_1181_" class="st0" d="M1216.92,439.19c0,3.02-2.44,5.46-5.46,5.46s-5.46-2.44-5.46-5.46s2.44-5.46,5.46-5.46
		C1214.48,433.73,1216.92,436.17,1216.92,439.19z"/>
	<path id="XMLID_1180_" class="st0" d="M1245.29,439.19c0,3.02-2.44,5.46-5.46,5.46s-5.46-2.44-5.46-5.46s2.44-5.46,5.46-5.46
		S1245.29,436.17,1245.29,439.19z"/>
	<path id="XMLID_1179_" class="st0" d="M1273.68,439.19c0,3.02-2.44,5.46-5.46,5.46c-3.02,0-5.46-2.44-5.46-5.46
		s2.44-5.46,5.46-5.46C1271.21,433.73,1273.68,436.17,1273.68,439.19z"/>
	<path id="XMLID_1177_" class="st0" d="M1216.92,411.24c0,3.02-2.44,5.46-5.46,5.46s-5.46-2.44-5.46-5.46
		c0-3.02,2.44-5.46,5.46-5.46C1214.48,405.78,1216.92,408.22,1216.92,411.24z"/>
	<path id="XMLID_1176_" class="st0" d="M1245.29,411.24c0,3.02-2.44,5.46-5.46,5.46s-5.46-2.44-5.46-5.46
		c0-3.02,2.44-5.46,5.46-5.46C1242.85,405.78,1245.29,408.22,1245.29,411.24z"/>
	<path id="XMLID_1175_" class="st0" d="M1273.68,411.24c0,3.02-2.44,5.46-5.46,5.46c-3.02,0-5.46-2.44-5.46-5.46
		c0-3.02,2.44-5.46,5.46-5.46C1271.21,405.78,1273.68,408.22,1273.68,411.24z"/>
</g>
</svg>
