<?xml version="1.0" encoding="utf-8"?>
<!-- Generator: Adobe Illustrator 25.4.1, SVG Export Plug-In . SVG Version: 6.00 Build 0)  -->
<svg version="1.1" id="Layer_1" xmlns="http://www.w3.org/2000/svg" xmlns:xlink="http://www.w3.org/1999/xlink" x="0px" y="0px"
	 viewBox="0 0 1280 500" style="enable-background:new 0 0 1280 500;" xml:space="preserve">
<style type="text/css">
	.st0{fill:#49AEA6;}
	.st1{fill:#FFFFFF;}
	.st2{fill:#F1BB00;}
</style>
<g>
	<rect x="1195.23" y="0.46" class="st0" width="86.32" height="86.32"/>
	<path class="st1" d="M1216.81,18.29v3.77h3.68c9.89,0,17.9-7.97,17.9-17.81V0.48h-3.68C1224.82,0.46,1216.81,8.45,1216.81,18.29z"
		/>
	<path class="st1" d="M1216.81,22.04v3.77c0,9.83,8.01,17.81,17.9,17.81h3.68v-3.77c0-9.83-8.01-17.81-17.9-17.81H1216.81z"/>
	<path class="st1" d="M1195.23,39.87v3.77h3.68c9.89,0,17.9-7.97,17.9-17.81v-3.77h-3.68C1203.24,22.04,1195.23,30.03,1195.23,39.87
		z"/>
	<path class="st1" d="M1195.23,0.46v3.77c0,9.83,8.01,17.81,17.9,17.81h3.68v-3.77c0-9.83-8.01-17.81-17.9-17.81H1195.23z"/>
	<path class="st1" d="M1281.55,4.24V0.46h-3.68c-9.89,0-17.9,7.97-17.9,17.81v3.77h3.68C1273.54,22.04,1281.55,14.07,1281.55,4.24z"
		/>
	<path class="st1" d="M1281.55,43.62v-3.77c0-9.83-8.01-17.81-17.9-17.81h-3.68v3.77c0,9.83,8.01,17.81,17.9,17.81H1281.55z"/>
	<path class="st1" d="M1242.07,43.62c9.89,0,17.9-7.97,17.9-17.81v-3.77h-3.68c-9.89,0-17.9,7.97-17.9,17.81v3.77H1242.07z"/>
	<path class="st1" d="M1256.29,22.04h3.68v-3.77c0-9.83-8.01-17.81-17.9-17.81h-3.68v3.77C1238.39,14.07,1246.4,22.04,1256.29,22.04
		z"/>
	<path class="st1" d="M1216.81,61.45v3.77h3.68c9.89,0,17.9-7.97,17.9-17.81v-3.77h-3.68C1224.82,43.62,1216.81,51.61,1216.81,61.45
		z"/>
	<path class="st1" d="M1216.81,65.2v3.77c0,9.83,8.01,17.81,17.9,17.81h3.68v-3.77c0-9.83-8.01-17.81-17.9-17.81H1216.81z"/>
	<path class="st1" d="M1195.23,83.03v3.77h3.68c9.89,0,17.9-7.97,17.9-17.81v-3.77h-3.68C1203.24,65.2,1195.23,73.17,1195.23,83.03z
		"/>
	<path class="st1" d="M1195.23,43.62v3.77c0,9.83,8.01,17.81,17.9,17.81h3.68v-3.77c0-9.83-8.01-17.81-17.9-17.81H1195.23z"/>
	<path class="st1" d="M1281.55,47.4v-3.77h-3.68c-9.89,0-17.9,7.97-17.9,17.81v3.77h3.68C1273.54,65.2,1281.55,57.23,1281.55,47.4z"
		/>
	<path class="st1" d="M1281.55,86.78v-3.77c0-9.83-8.01-17.81-17.9-17.81h-3.68v3.77c0,9.83,8.01,17.81,17.9,17.81H1281.55z"/>
	<path class="st1" d="M1242.07,86.78c9.89,0,17.9-7.97,17.9-17.81V65.2h-3.68c-9.89,0-17.9,7.97-17.9,17.81v3.77H1242.07z"/>
	<path class="st1" d="M1256.29,65.2h3.68v-3.77c0-9.83-8.01-17.81-17.9-17.81h-3.68v3.77C1238.39,57.23,1246.4,65.2,1256.29,65.2z"
		/>
</g>
<g>
	<g>
		<rect x="1109" y="87.22" class="st0" width="86.32" height="86.32"/>
		<path class="st1" d="M1134.19,148.36c-23.85-23.85-25.19-61.13-25.19-61.13s37.31,1.34,61.13,25.19
			c23.85,23.85,25.19,61.13,25.19,61.13S1158.02,172.19,1134.19,148.36z"/>
	</g>
	<g>
		<rect x="1195.33" y="87.22" class="st2" width="86.32" height="86.32"/>
		<path class="st1" d="M1220.51,112.42c-23.85,23.85-25.19,61.13-25.19,61.13s37.31-1.34,61.13-25.19
			c23.85-23.85,25.19-61.13,25.19-61.13S1244.34,88.57,1220.51,112.42z"/>
	</g>
</g>
<g>
	<path id="XMLID_1186_" class="st0" d="M1033.91,73.33c0,3.57-2.89,6.46-6.46,6.46c-3.57,0-6.46-2.89-6.46-6.46s2.89-6.46,6.46-6.46
		C1031.02,66.85,1033.91,69.77,1033.91,73.33z"/>
	<path id="XMLID_1185_" class="st0" d="M1067.44,73.33c0,3.57-2.89,6.46-6.46,6.46s-6.46-2.89-6.46-6.46s2.89-6.46,6.46-6.46
		C1064.55,66.85,1067.44,69.77,1067.44,73.33z"/>
	<path id="XMLID_1184_" class="st0" d="M1101,73.33c0,3.57-2.89,6.46-6.46,6.46c-3.57,0-6.46-2.89-6.46-6.46s2.89-6.46,6.46-6.46
		C1098.08,66.85,1101,69.77,1101,73.33z"/>
	<path id="XMLID_1181_" class="st0" d="M1033.91,40.27c0,3.57-2.89,6.46-6.46,6.46c-3.57,0-6.46-2.89-6.46-6.46s2.89-6.46,6.46-6.46
		C1031.02,33.82,1033.91,36.71,1033.91,40.27z"/>
	<path id="XMLID_1180_" class="st0" d="M1067.44,40.27c0,3.57-2.89,6.46-6.46,6.46s-6.46-2.89-6.46-6.46s2.89-6.46,6.46-6.46
		C1064.55,33.82,1067.44,36.71,1067.44,40.27z"/>
	<path id="XMLID_1179_" class="st0" d="M1101,40.27c0,3.57-2.89,6.46-6.46,6.46c-3.57,0-6.46-2.89-6.46-6.46s2.89-6.46,6.46-6.46
		C1098.08,33.82,1101,36.71,1101,40.27z"/>
	<path id="XMLID_1177_" class="st0" d="M1033.91,7.24c0,3.57-2.89,6.46-6.46,6.46c-3.57,0-6.46-2.89-6.46-6.46s2.89-6.46,6.46-6.46
		C1031.02,0.78,1033.91,3.67,1033.91,7.24z"/>
	<path id="XMLID_1176_" class="st0" d="M1067.44,7.24c0,3.57-2.89,6.46-6.46,6.46s-6.46-2.89-6.46-6.46s2.89-6.46,6.46-6.46
		C1064.55,0.78,1067.44,3.67,1067.44,7.24z"/>
	<path id="XMLID_1175_" class="st0" d="M1101,7.24c0,3.57-2.89,6.46-6.46,6.46c-3.57,0-6.46-2.89-6.46-6.46s2.89-6.46,6.46-6.46
		C1098.08,0.78,1101,3.67,1101,7.24z"/>
</g>
</svg>
