<?xml version="1.0" encoding="utf-8"?>
<!-- Generator: Adobe Illustrator 25.4.1, SVG Export Plug-In . SVG Version: 6.00 Build 0)  -->
<svg version="1.1" id="Layer_1" xmlns="http://www.w3.org/2000/svg" xmlns:xlink="http://www.w3.org/1999/xlink" x="0px" y="0px"
	 viewBox="0 0 1280 500" style="enable-background:new 0 0 1280 500;" xml:space="preserve">
<style type="text/css">
	.st0{fill:#49AEA6;}
	.st1{fill:#FFFFFF;}
	.st2{fill:#F1BB00;}
</style>
<g>
	<rect x="936.23" y="0.46" class="st0" width="86.32" height="86.32"/>
	<path class="st1" d="M957.81,18.29v3.77h3.68c9.89,0,17.9-7.97,17.9-17.81V0.48h-3.68C965.82,0.46,957.81,8.45,957.81,18.29z"/>
	<path class="st1" d="M957.81,22.04v3.77c0,9.83,8.01,17.81,17.9,17.81h3.68v-3.77c0-9.83-8.01-17.81-17.9-17.81H957.81z"/>
	<path class="st1" d="M936.23,39.87v3.77h3.68c9.89,0,17.9-7.97,17.9-17.81v-3.77h-3.68C944.24,22.04,936.23,30.03,936.23,39.87z"/>
	<path class="st1" d="M936.23,0.46v3.77c0,9.83,8.01,17.81,17.9,17.81h3.68v-3.77c0-9.83-8.01-17.81-17.9-17.81H936.23z"/>
	<path class="st1" d="M1022.55,4.24V0.46h-3.68c-9.89,0-17.9,7.97-17.9,17.81v3.77h3.68C1014.54,22.04,1022.55,14.07,1022.55,4.24z"
		/>
	<path class="st1" d="M1022.55,43.62v-3.77c0-9.83-8.01-17.81-17.9-17.81h-3.68v3.77c0,9.83,8.01,17.81,17.9,17.81H1022.55z"/>
	<path class="st1" d="M983.07,43.62c9.89,0,17.9-7.97,17.9-17.81v-3.77h-3.68c-9.89,0-17.9,7.97-17.9,17.81v3.77H983.07z"/>
	<path class="st1" d="M997.29,22.04h3.68v-3.77c0-9.83-8.01-17.81-17.9-17.81h-3.68v3.77C979.39,14.07,987.4,22.04,997.29,22.04z"/>
	<path class="st1" d="M957.81,61.45v3.77h3.68c9.89,0,17.9-7.97,17.9-17.81v-3.77h-3.68C965.82,43.62,957.81,51.61,957.81,61.45z"/>
	<path class="st1" d="M957.81,65.2v3.77c0,9.83,8.01,17.81,17.9,17.81h3.68v-3.77c0-9.83-8.01-17.81-17.9-17.81H957.81z"/>
	<path class="st1" d="M936.23,83.03v3.77h3.68c9.89,0,17.9-7.97,17.9-17.81v-3.77h-3.68C944.24,65.2,936.23,73.17,936.23,83.03z"/>
	<path class="st1" d="M936.23,43.62v3.77c0,9.83,8.01,17.81,17.9,17.81h3.68v-3.77c0-9.83-8.01-17.81-17.9-17.81H936.23z"/>
	<path class="st1" d="M1022.55,47.4v-3.77h-3.68c-9.89,0-17.9,7.97-17.9,17.81v3.77h3.68C1014.54,65.2,1022.55,57.23,1022.55,47.4z"
		/>
	<path class="st1" d="M1022.55,86.78v-3.77c0-9.83-8.01-17.81-17.9-17.81h-3.68v3.77c0,9.83,8.01,17.81,17.9,17.81H1022.55z"/>
	<path class="st1" d="M983.07,86.78c9.89,0,17.9-7.97,17.9-17.81V65.2h-3.68c-9.89,0-17.9,7.97-17.9,17.81v3.77H983.07z"/>
	<path class="st1" d="M997.29,65.2h3.68v-3.77c0-9.83-8.01-17.81-17.9-17.81h-3.68v3.77C979.39,57.23,987.4,65.2,997.29,65.2z"/>
</g>
<g>
	<g>
		<rect x="850" y="87.22" class="st0" width="86.32" height="86.32"/>
		<path class="st1" d="M875.19,148.36C851.34,124.51,850,87.23,850,87.23s37.31,1.34,61.13,25.19
			c23.85,23.85,25.19,61.13,25.19,61.13S899.02,172.19,875.19,148.36z"/>
	</g>
	<g>
		<rect x="936.33" y="87.22" class="st2" width="86.32" height="86.32"/>
		<path class="st1" d="M961.51,112.42c-23.85,23.85-25.19,61.13-25.19,61.13s37.31-1.34,61.13-25.19
			c23.85-23.85,25.19-61.13,25.19-61.13S985.34,88.57,961.51,112.42z"/>
	</g>
</g>
<path class="st2" d="M621.95,426c-41.19,0-74.58,33.37-74.58,74.54v0.03h34.01v-0.02c0-22.4,18.17-40.55,40.57-40.55V426L621.95,426
	z"/>
<g>
	<path id="XMLID_1186_" class="st0" d="M957.92,487.16c0,3.02-2.44,5.46-5.46,5.46s-5.46-2.44-5.46-5.46s2.44-5.46,5.46-5.46
		C955.48,481.68,957.92,484.14,957.92,487.16z"/>
	<path id="XMLID_1185_" class="st0" d="M986.29,487.16c0,3.02-2.44,5.46-5.46,5.46c-3.02,0-5.46-2.44-5.46-5.46s2.44-5.46,5.46-5.46
		C983.85,481.68,986.29,484.14,986.29,487.16z"/>
	<path id="XMLID_1184_" class="st0" d="M1014.68,487.16c0,3.02-2.44,5.46-5.46,5.46c-3.02,0-5.46-2.44-5.46-5.46
		s2.44-5.46,5.46-5.46C1012.21,481.68,1014.68,484.14,1014.68,487.16z"/>
	<path id="XMLID_1181_" class="st0" d="M957.92,459.19c0,3.02-2.44,5.46-5.46,5.46s-5.46-2.44-5.46-5.46s2.44-5.46,5.46-5.46
		C955.48,453.73,957.92,456.17,957.92,459.19z"/>
	<path id="XMLID_1180_" class="st0" d="M986.29,459.19c0,3.02-2.44,5.46-5.46,5.46c-3.02,0-5.46-2.44-5.46-5.46s2.44-5.46,5.46-5.46
		C983.85,453.73,986.29,456.17,986.29,459.19z"/>
	<path id="XMLID_1179_" class="st0" d="M1014.68,459.19c0,3.02-2.44,5.46-5.46,5.46c-3.02,0-5.46-2.44-5.46-5.46
		s2.44-5.46,5.46-5.46C1012.21,453.73,1014.68,456.17,1014.68,459.19z"/>
	<path id="XMLID_1177_" class="st0" d="M957.92,431.24c0,3.02-2.44,5.46-5.46,5.46s-5.46-2.44-5.46-5.46c0-3.02,2.44-5.46,5.46-5.46
		C955.48,425.78,957.92,428.22,957.92,431.24z"/>
	<path id="XMLID_1176_" class="st0" d="M986.29,431.24c0,3.02-2.44,5.46-5.46,5.46c-3.02,0-5.46-2.44-5.46-5.46
		c0-3.02,2.44-5.46,5.46-5.46C983.85,425.78,986.29,428.22,986.29,431.24z"/>
	<path id="XMLID_1175_" class="st0" d="M1014.68,431.24c0,3.02-2.44,5.46-5.46,5.46c-3.02,0-5.46-2.44-5.46-5.46
		c0-3.02,2.44-5.46,5.46-5.46C1012.21,425.78,1014.68,428.22,1014.68,431.24z"/>
</g>
</svg>
